G04 EasyPC Gerber Version 20.0.2 Build 4112 *
G04 #@! TF.Part,Single*
G04 #@! TF.FileFunction,Soldermask,Top *
%FSLAX35Y35*%
%MOIN*%
G04 #@! TA.AperFunction,ComponentPad*
%ADD18O,0.11000X0.05800*%
G04 #@! TA.AperFunction,WasherPad*
%ADD100R,0.03100X0.08600*%
G04 #@! TA.AperFunction,SMDPad*
%ADD22R,0.05718X0.06506*%
%ADD71R,0.06506X0.05718*%
G04 #@! TA.AperFunction,WasherPad*
%ADD17R,0.06600X0.06600*%
G04 #@! TA.AperFunction,ComponentPad*
%ADD20C,0.06800*%
%ADD19C,0.06900*%
G04 #@! TA.AperFunction,WasherPad*
%ADD108C,0.09261*%
%ADD14C,0.18317*%
G04 #@! TA.AperFunction,ComponentPad*
%AMT21*0 Octagon Pad at angle 0*4,1,8,-0.01408,-0.03400,0.01408,-0.03400,0.03400,-0.01408,0.03400,0.01408,0.01408,0.03400,-0.01408,0.03400,-0.03400,0.01408,-0.03400,-0.01408,-0.01408,-0.03400,0*%
%ADD21T21*%
%AMT70*0 Octagon Pad at angle 0*4,1,8,-0.01428,-0.03450,0.01428,-0.03450,0.03450,-0.01428,0.03450,0.01428,0.01428,0.03450,-0.01428,0.03450,-0.03450,0.01428,-0.03450,-0.01428,-0.01428,-0.03450,0*%
%ADD70T70*%
G04 #@! TA.AperFunction,SMDPad*
%ADD27R,0.10800X0.06900*%
X0Y0D02*
D02*
D14*
X20722Y48085D03*
Y225250D03*
X137750Y121313D03*
X392573Y121510D03*
X394738Y48085D03*
Y225250D03*
X768754Y48085D03*
Y225250D03*
D02*
D17*
X366844Y183518D03*
Y193518D03*
X376844Y183518D03*
Y193518D03*
X386844Y183518D03*
Y193518D03*
X396844Y183518D03*
Y193518D03*
X406844Y183518D03*
Y193518D03*
X416844Y183518D03*
Y193518D03*
X426844Y183518D03*
Y193518D03*
D02*
D18*
X99364Y85467D03*
Y95467D03*
Y105467D03*
Y135467D03*
Y145467D03*
X231254Y85467D03*
Y95467D03*
Y105467D03*
Y135467D03*
Y145467D03*
X354187Y85663D03*
Y95663D03*
Y105663D03*
Y135663D03*
Y145663D03*
X486077Y85663D03*
Y95663D03*
Y105663D03*
Y135663D03*
Y145663D03*
X611667Y86352D03*
Y96352D03*
Y106352D03*
Y136352D03*
Y146352D03*
X743557Y86352D03*
Y96352D03*
Y106352D03*
Y136352D03*
Y146352D03*
D02*
D19*
X120033Y145604D03*
X251923D03*
X374856Y145801D03*
X506746D03*
X632337Y146490D03*
X764226D03*
D02*
D70*
X120033Y135604D03*
X251923D03*
X374856Y135801D03*
X506746D03*
X632337Y136490D03*
X764226D03*
D02*
D71*
X53104Y136864D03*
Y144344D03*
X56057Y84699D03*
Y92179D03*
Y97494D03*
Y104974D03*
X166195Y158124D03*
Y165604D03*
X184994Y136864D03*
Y144344D03*
X187947Y84699D03*
Y92179D03*
Y97494D03*
Y104974D03*
X289325Y150644D03*
Y158124D03*
X307927Y137061D03*
Y144541D03*
X310880Y84896D03*
Y92376D03*
Y97691D03*
Y105171D03*
X439817Y137061D03*
Y144541D03*
X442770Y84896D03*
Y92376D03*
Y97691D03*
Y105171D03*
X546904Y152415D03*
Y159896D03*
X565407Y137750D03*
Y145230D03*
X568360Y85585D03*
Y93065D03*
Y98380D03*
Y105860D03*
X678990Y154778D03*
Y162258D03*
X697297Y137750D03*
Y145230D03*
X700250Y85585D03*
Y93065D03*
Y98380D03*
Y105860D03*
D02*
D20*
X121018Y67691D03*
Y94266D03*
X252907Y67691D03*
Y94266D03*
X375841Y67888D03*
Y94463D03*
X507730Y67888D03*
Y94463D03*
X633321Y68577D03*
Y95152D03*
X765211Y68577D03*
Y95152D03*
D02*
D21*
X121018Y77691D03*
Y104266D03*
X252907Y77691D03*
Y104266D03*
X375841Y77888D03*
Y104463D03*
X507730Y77888D03*
Y104463D03*
X633321Y78577D03*
Y105152D03*
X765211Y78577D03*
Y105152D03*
D02*
D22*
X81254Y158321D03*
X88734D03*
X397593Y154187D03*
X405073D03*
D02*
D27*
X37258Y7920D03*
Y21320D03*
X53498Y7920D03*
Y21320D03*
X194148Y7920D03*
Y21320D03*
X216490Y7920D03*
Y21320D03*
X301333Y7920D03*
Y21320D03*
X323675Y7920D03*
Y21320D03*
X465900Y8904D03*
Y22304D03*
X488537Y9101D03*
Y22501D03*
X572888Y8904D03*
Y22304D03*
X595526Y9101D03*
Y22501D03*
X737455Y8904D03*
Y22304D03*
X760093Y9101D03*
Y22501D03*
D02*
D100*
X23354Y102415D03*
Y137455D03*
X28977Y102415D03*
Y137455D03*
X34600Y102415D03*
Y137455D03*
X40294Y102415D03*
Y137455D03*
X155244Y102415D03*
Y137455D03*
X160867Y102415D03*
Y137455D03*
X166490Y102415D03*
Y137455D03*
X172183Y102415D03*
Y137455D03*
X278177Y102612D03*
Y137652D03*
X283800Y102612D03*
Y137652D03*
X289423Y102612D03*
Y137652D03*
X295117Y102612D03*
Y137652D03*
X410067Y102612D03*
Y137652D03*
X415690Y102612D03*
Y137652D03*
X421313Y102612D03*
Y137652D03*
X427006Y102612D03*
Y137652D03*
X535657Y103301D03*
Y138341D03*
X541280Y103301D03*
Y138341D03*
X546904Y103301D03*
Y138341D03*
X552597Y103301D03*
Y138341D03*
X667547Y103301D03*
Y138341D03*
X673170Y103301D03*
Y138341D03*
X678793Y103301D03*
Y138341D03*
X684487Y103301D03*
Y138341D03*
D02*
D108*
X69935Y22986D03*
X93557D03*
X152612D03*
X176234D03*
X341589D03*
X365211D03*
X424266D03*
X447888D03*
X613242D03*
X636864D03*
X695919D03*
D03*
X719541D03*
D03*
X0Y0D02*
M02*
