G04 EasyPC Gerber Version 20.0.2 Build 4112 *
G04 #@! TF.Part,Single*
G04 #@! TF.FileFunction,Copper,L1,Top *
%FSLAX35Y35*%
%MOIN*%
G04 #@! TA.AperFunction,ComponentPad*
%AMT92*0 Octagon Pad at angle 0*4,1,8,-0.01284,-0.03100,0.01284,-0.03100,0.03100,-0.01284,0.03100,0.01284,0.01284,0.03100,-0.01284,0.03100,-0.03100,0.01284,-0.03100,-0.01284,-0.01284,-0.03100,0*%
%ADD92T92*%
%AMT90*0 Octagon Pad at angle 0*4,1,8,-0.01305,-0.03150,0.01305,-0.03150,0.03150,-0.01305,0.03150,0.01305,0.01305,0.03150,-0.01305,0.03150,-0.03150,0.01305,-0.03150,-0.01305,-0.01305,-0.03150,0*%
%ADD90T90*%
%ADD88O,0.10400X0.05200*%
G04 #@! TA.AperFunction,WasherPad*
%ADD84R,0.02500X0.08000*%
G04 #@! TA.AperFunction,SMDPad*
%ADD94R,0.05118X0.05906*%
%ADD93R,0.05906X0.05118*%
%ADD150R,0.10200X0.06300*%
G04 #@! TA.AperFunction,WasherPad*
%ADD85R,0.06000X0.06000*%
G04 #@! TD.AperFunction*
%ADD13C,0.00500*%
%ADD98C,0.01500*%
%ADD96C,0.02500*%
G04 #@! TA.AperFunction,ViaPad*
%ADD107C,0.04800*%
G04 #@! TD.AperFunction*
%ADD95C,0.05000*%
G04 #@! TA.AperFunction,ComponentPad*
%ADD91C,0.06200*%
%ADD89C,0.06300*%
G04 #@! TA.AperFunction,WasherPad*
%ADD106C,0.08661*%
%ADD82C,0.17717*%
X0Y0D02*
D02*
D13*
X14128Y211667D02*
Y127612D01*
X129367*
G75*
G02X146133I8383J-6299*
G01*
X384045*
G75*
G02X401100I8528J-6102*
G01*
X784600*
Y212258*
X14128*
X14030Y211667*
X14128*
X362217Y198146D02*
X371472D01*
Y188890*
X362217*
Y191140*
X91112*
Y162902*
X92921*
Y153740*
X77067*
Y155943*
X48971*
X40250Y147222*
G75*
G02X40294Y147222I48J-2881*
G01*
X48524*
Y148531*
X57685*
Y148344*
X93668*
G75*
G02X96766Y149695I3098J-2878*
G01*
X97829*
G75*
G02X100899I1535J-4169*
G01*
X101963*
G75*
G02X106191Y145467J-4228*
G01*
G75*
G02X101963Y141238I-4228*
G01*
X100728*
G75*
G02X98000I-1364J4229*
G01*
X96766*
G75*
G02X93668Y142589J4228*
G01*
X57685*
Y140157*
X48524*
Y141467*
X43172*
Y137455*
G75*
G02X43171Y137407I-2882*
G01*
Y131827*
X26100*
Y143083*
X32222*
Y144931*
G75*
G02Y144934I854J2*
G01*
G75*
G02Y144935I740J0*
G01*
G75*
G02X32919Y146617I2378*
G01*
X46305Y160002*
G75*
G02X47990Y160699I1681J-1681*
G01*
X77067*
Y162902*
X86356*
Y193518*
G75*
G02X88734Y195896I2378*
G01*
X362217*
Y198146*
X120033Y150382D02*
G75*
G02X124811Y145604J-4778D01*
G01*
G75*
G02X120033Y140826I-4778*
G01*
G75*
G02X115256Y145604J4778*
G01*
G75*
G02X120033Y150382I4778*
G01*
X372217Y188146D02*
X381472D01*
Y178890*
X379222*
Y174364*
G75*
G02X376844Y171986I-2378*
G01*
X168573*
Y169791*
X170776*
Y153937*
X168868*
Y143083*
X169306*
Y144344*
G75*
G02X172183Y147222I2878*
G01*
X180413*
Y148531*
X189575*
Y148344*
X225558*
G75*
G02X228656Y149695I3098J-2878*
G01*
X229719*
G75*
G02X232789I1535J-4169*
G01*
X233852*
G75*
G02X238081Y145467J-4228*
G01*
G75*
G02X233852Y141238I-4228*
G01*
X232618*
G75*
G02X229890I-1364J4229*
G01*
X228656*
G75*
G02X225558Y142589J4228*
G01*
X189575*
Y140157*
X180413*
Y141467*
X175061*
Y137455*
G75*
G02X175061Y137407I-2882*
G01*
Y131827*
X157990*
Y143083*
X164112*
Y153937*
X161614*
Y169791*
X163817*
Y174364*
G75*
G02X166195Y176742I2378*
G01*
X374467*
Y178890*
X372217*
Y188146*
X251923Y150382D02*
G75*
G02X256701Y145604J-4778D01*
G01*
G75*
G02X251923Y140826I-4778*
G01*
G75*
G02X247145Y145604J4778*
G01*
G75*
G02X251923Y150382I4778*
G01*
X356785Y149892D02*
G75*
G02X361014Y145663J-4228D01*
G01*
G75*
G02X356785Y141435I-4228*
G01*
X355551*
G75*
G02X352823I-1364J4229*
G01*
X351589*
G75*
G02X348491Y142785J4228*
G01*
X312508*
Y140354*
X303346*
Y141663*
X297994*
Y137652*
G75*
G02X297994Y137604I-2882*
G01*
Y132024*
X280923*
Y143280*
X286888*
Y146457*
X284744*
Y162311*
X286986*
Y163381*
G75*
G02X285395Y166589I2437J3207*
G01*
G75*
G02X293451I4028*
G01*
G75*
G02X292057Y163541I-4028*
G01*
Y162311*
X293906*
Y147152*
G75*
G02X295117Y147419I1211J-2611*
G01*
X303346*
Y148728*
X312508*
Y148541*
X348491*
G75*
G02X351589Y149892I3098J-2878*
G01*
X352652*
G75*
G02X355722I1535J-4169*
G01*
X356785*
X374856Y150579D02*
G75*
G02X379634Y145801J-4778D01*
G01*
G75*
G02X374856Y141023I-4778*
G01*
G75*
G02X370078Y145801J4778*
G01*
G75*
G02X374856Y150579I4778*
G01*
X362217Y188146D02*
X371472D01*
Y178890*
X362217*
Y188146*
X382217D02*
X391472D01*
Y178890*
X382217*
Y188146*
Y198146D02*
X391472D01*
Y188890*
X382217*
Y198146*
X488675Y149892D02*
G75*
G02X492904Y145663J-4228D01*
G01*
G75*
G02X488675Y141435I-4228*
G01*
X487441*
G75*
G02X484713I-1364J4229*
G01*
X483478*
G75*
G02X480381Y142785J4228*
G01*
X444398*
Y140354*
X435236*
Y141663*
X429884*
Y137652*
G75*
G02X429884Y137604I-2882*
G01*
Y132024*
X412813*
Y143280*
X418935*
Y151809*
X409260*
Y149606*
X393406*
Y158768*
X395215*
Y178890*
X392217*
Y188146*
X401472*
Y178890*
X399970*
Y158768*
X409260*
Y156565*
X421313*
G75*
G02X423691Y154187J-2378*
G01*
Y143280*
X424128*
Y144541*
G75*
G02X427006Y147419I2878*
G01*
X435236*
Y148728*
X444398*
Y148541*
X480381*
G75*
G02X483478Y149892I3098J-2878*
G01*
X484542*
G75*
G02X487612I1535J-4169*
G01*
X488675*
X402217Y188146D02*
X411472D01*
Y178890*
X402217*
Y188146*
Y198146D02*
X411472D01*
Y188890*
X402217*
Y198146*
X746156Y150581D02*
G75*
G02Y142124J-4228D01*
G01*
X744921*
G75*
G02X742193I-1364J4229*
G01*
X740959*
G75*
G02X737861Y143474J4228*
G01*
X701878*
Y141043*
X692717*
Y142352*
X687365*
Y138341*
G75*
G02X687364Y138293I-2882*
G01*
Y132713*
X670293*
Y143969*
X676612*
Y150591*
X674409*
Y166445*
X676612*
Y169919*
X549169*
G75*
G02X550057Y164083I-2265J-3331*
G01*
X551484*
Y148228*
X549281*
Y143969*
X549719*
Y145230*
G75*
G02X552597Y148108I2878*
G01*
X560827*
Y149417*
X569988*
Y149230*
X605971*
G75*
G02X609069Y150581I3098J-2878*
G01*
X610132*
G75*
G02X613202I1535J-4169*
G01*
X614266*
G75*
G02X618494Y146352J-4228*
G01*
G75*
G02X614266Y142124I-4228*
G01*
X613031*
G75*
G02X610303I-1364J4229*
G01*
X609069*
G75*
G02X605971Y143474J4228*
G01*
X569988*
Y141043*
X560827*
Y142352*
X555475*
Y138341*
G75*
G02X555474Y138293I-2882*
G01*
Y132713*
X538404*
Y143969*
X544526*
Y148228*
X542323*
Y164083*
X543750*
G75*
G02X544639Y169919I3154J2506*
G01*
X416844*
G75*
G02X414467Y172297J2378*
G01*
Y178890*
X412217*
Y188146*
X421472*
Y178890*
X419222*
Y174675*
X678990*
G75*
G02X681368Y172297J-2378*
G01*
Y166445*
X683571*
Y150591*
X681368*
Y143969*
X681609*
Y145230*
G75*
G02X684487Y148108I2878*
G01*
X692717*
Y149417*
X701878*
Y149230*
X737861*
G75*
G02X740959Y150581I3098J-2878*
G01*
X742022*
G75*
G02X745092I1535J-4169*
G01*
X746156*
X632337Y151268D02*
G75*
G02Y141712J-4778D01*
G01*
G75*
G02X627559Y146490J4778*
G01*
G75*
G02X632337Y151268I4778*
G01*
X506746Y150579D02*
G75*
G02X511524Y145801J-4778D01*
G01*
G75*
G02X506746Y141023I-4778*
G01*
G75*
G02X501968Y145801J4778*
G01*
G75*
G02X506746Y150579I4778*
G01*
X422217Y188146D02*
X431472D01*
Y178890*
X422217*
Y188146*
Y198146D02*
X431472D01*
Y188890*
X422217*
Y198146*
X764226Y151268D02*
G75*
G02Y141712J-4778D01*
G01*
G75*
G02X759448Y146490J4778*
G01*
G75*
G02X764226Y151268I4778*
G01*
X169596Y145604D02*
G36*
X168868D01*
Y143083*
X169306*
Y144344*
G75*
G02X169596Y145604I2878J0*
G01*
G37*
X768922D02*
G36*
G75*
G02X764226Y141712I-4695J886D01*
G01*
G75*
G02X759531Y145604I1J4778*
G01*
X750317*
G75*
G02X746156Y142124I-4162J748*
G01*
X744921*
G75*
G02X742193I-1364J4230*
G01*
X740959*
G75*
G02X737861Y143474J4228*
G01*
X701878*
Y141043*
X692717*
Y142352*
X687365*
Y138341*
G75*
G02Y138329I-1455J-6*
G01*
G75*
G02X687364Y138293I-1454J-2*
G01*
Y132713*
X670293*
Y143969*
X676612*
Y145604*
X637032*
G75*
G02X632337Y141712I-4695J886*
G01*
G75*
G02X627642Y145604I1J4778*
G01*
X618427*
G75*
G02X614266Y142124I-4162J748*
G01*
X613031*
G75*
G02X610303I-1364J4230*
G01*
X609069*
G75*
G02X605971Y143474J4228*
G01*
X569988*
Y141043*
X560827*
Y142352*
X555475*
Y138341*
G75*
G02Y138329I-1455J-6*
G01*
G75*
G02X555474Y138293I-1454J-2*
G01*
Y132713*
X538404*
Y143969*
X544526*
Y145604*
X511520*
G75*
G02X506746Y141023I-4774J198*
G01*
G75*
G02X501972Y145604I0J4779*
G01*
X492903*
G75*
G02X488675Y141435I-4228J59*
G01*
X487441*
G75*
G02X484713I-1364J4230*
G01*
X483478*
G75*
G02X480381Y142785J4228*
G01*
X444398*
Y140354*
X435236*
Y141663*
X429884*
Y137652*
G75*
G02Y137640I-1455J-6*
G01*
G75*
G02X429884Y137604I-1454J-2*
G01*
Y132024*
X412813*
Y143280*
X418935*
Y145604*
X379630*
G75*
G02X374856Y141023I-4774J198*
G01*
G75*
G02X370082Y145604I0J4779*
G01*
X361013*
G75*
G02X356785Y141435I-4228J59*
G01*
X355551*
G75*
G02X352823I-1364J4230*
G01*
X351589*
G75*
G02X348491Y142785J4228*
G01*
X312508*
Y140354*
X303346*
Y141663*
X297994*
Y137652*
G75*
G02Y137640I-1455J-6*
G01*
G75*
G02X297994Y137604I-1454J-2*
G01*
Y132024*
X280923*
Y143280*
X286888*
Y145604*
X256701*
G75*
G02X251923Y140826I-4778*
G01*
G75*
G02X247145Y145604J4778*
G01*
X238078*
G75*
G02X238081Y145467I-4227J-141*
G01*
G75*
G02X233852Y141238I-4228*
G01*
X232618*
G75*
G02X229890I-1364J4230*
G01*
X228656*
G75*
G02X225558Y142589J4228*
G01*
X189575*
Y140157*
X180413*
Y141467*
X175061*
Y137455*
G75*
G02Y137443I-1455J-6*
G01*
G75*
G02X175061Y137407I-1454J-2*
G01*
Y131827*
X157990*
Y143083*
X164112*
Y145604*
X124811*
G75*
G02X120033Y140826I-4778*
G01*
G75*
G02X115256Y145604J4778*
G01*
X106189*
G75*
G02X106191Y145467I-4227J-141*
G01*
G75*
G02X101963Y141238I-4228*
G01*
X100728*
G75*
G02X98000I-1364J4230*
G01*
X96766*
G75*
G02X93668Y142589J4228*
G01*
X57685*
Y140157*
X48524*
Y141467*
X43172*
Y137455*
G75*
G02Y137443I-1455J-6*
G01*
G75*
G02X43171Y137407I-1454J-2*
G01*
Y131827*
X26100*
Y143083*
X32222*
Y144931*
Y144934*
Y144935*
G75*
G02X32319Y145604I2380J-2*
G01*
X14280*
Y127862*
X129560*
G75*
G02X145940I8190J-6550*
G01*
X384230*
G75*
G02X400916I8343J-6352*
G01*
X784350*
Y145604*
X768922*
G37*
X424332D02*
G36*
X423691D01*
Y143280*
X424128*
Y144541*
G75*
G02X424332Y145604I2878*
G01*
G37*
X549743D02*
G36*
X549281D01*
Y143969*
X549719*
Y145230*
G75*
G02X549743Y145604I2878*
G01*
G37*
X681633D02*
G36*
X681368D01*
Y143969*
X681609*
Y145230*
G75*
G02X681633Y145604I2878*
G01*
G37*
X32319D02*
G36*
G75*
G02X32919Y146617I2283J-670D01*
G01*
X46305Y160002*
G75*
G02X47990Y160699I1681J-1682*
G01*
X77067*
Y162902*
X86356*
Y164986*
X14280*
Y145604*
X32319*
G37*
X161614Y164986D02*
G36*
X91112D01*
Y162902*
X92921*
Y153740*
X77067*
Y155943*
X48971*
X40250Y147222*
G75*
G02X40294Y147222I33J-1191*
G01*
X48524*
Y148531*
X57685*
Y148344*
X93668*
G75*
G02X96766Y149695I3098J-2878*
G01*
X97829*
G75*
G02X100899I1535J-4169*
G01*
X101963*
G75*
G02X106189Y145604I0J-4229*
G01*
X115256*
G75*
G02X120033Y150382I4778*
G01*
G75*
G02X124811Y145604J-4778*
G01*
X164112*
Y153937*
X161614*
Y164986*
G37*
X286888Y145604D02*
G36*
Y146457D01*
X284744*
Y162311*
X286986*
Y163381*
G75*
G02X285728Y164986I2437J3207*
G01*
X170776*
Y153937*
X168868*
Y145604*
X169596*
G75*
G02X172183Y147222I2587J-1260*
G01*
X180413*
Y148531*
X189575*
Y148344*
X225558*
G75*
G02X228656Y149695I3098J-2878*
G01*
X229719*
G75*
G02X232789I1535J-4169*
G01*
X233852*
G75*
G02X238078Y145604I0J-4229*
G01*
X247145*
G75*
G02X251923Y150382I4778*
G01*
G75*
G02X256701Y145604J-4778*
G01*
X286888*
G37*
X418935D02*
G36*
Y151809D01*
X409260*
Y149606*
X393406*
Y158768*
X395215*
Y164986*
X293119*
G75*
G02X292057Y163541I-3696J1602*
G01*
Y162311*
X293906*
Y147152*
G75*
G02X295117Y147419I1212J-2613*
G01*
X303346*
Y148728*
X312508*
Y148541*
X348491*
G75*
G02X351589Y149892I3098J-2878*
G01*
X352652*
G75*
G02X355722I1535J-4169*
G01*
X356785*
G75*
G02X361014Y145663J-4228*
G01*
G75*
G02X361013Y145604I-4230J-1*
G01*
X370082*
G75*
G02X370078Y145801I4776J194*
G01*
G75*
G02X374856Y150579I4778*
G01*
G75*
G02X379634Y145801J-4778*
G01*
G75*
G02X379630Y145604I-4780J-3*
G01*
X418935*
G37*
X543208Y164986D02*
G36*
X399970D01*
Y158768*
X409260*
Y156565*
X421313*
G75*
G02X423691Y154187J-2378*
G01*
Y145604*
X424332*
G75*
G02X427006Y147419I2674J-1063*
G01*
X435236*
Y148728*
X444398*
Y148541*
X480381*
G75*
G02X483478Y149892I3098J-2878*
G01*
X484542*
G75*
G02X487612I1535J-4169*
G01*
X488675*
G75*
G02X492904Y145663J-4228*
G01*
G75*
G02X492903Y145604I-4230J-1*
G01*
X501972*
G75*
G02X501968Y145801I4776J194*
G01*
G75*
G02X506746Y150579I4778*
G01*
G75*
G02X511524Y145801J-4778*
G01*
G75*
G02X511520Y145604I-4780J-3*
G01*
X544526*
Y148228*
X542323*
Y164083*
X543750*
G75*
G02X543208Y164986I3154J2506*
G01*
G37*
X674409D02*
G36*
X550599D01*
G75*
G02X550057Y164083I-3696J1602*
G01*
X551484*
Y148228*
X549281*
Y145604*
X549743*
G75*
G02X552597Y148108I2854J-374*
G01*
X560827*
Y149417*
X569988*
Y149230*
X605971*
G75*
G02X609069Y150581I3098J-2878*
G01*
X610132*
G75*
G02X613202I1535J-4169*
G01*
X614266*
G75*
G02X618494Y146352J-4228*
G01*
G75*
G02X618427Y145604I-4229J2*
G01*
X627642*
G75*
G02X627559Y146490I4696J887*
G01*
G75*
G02X632337Y151268I4778*
G01*
G75*
G02X637115Y146490J-4778*
G01*
G75*
G02X637032Y145604I-4778J-1*
G01*
X676612*
Y150591*
X674409*
Y164986*
G37*
X750317Y145604D02*
G36*
X759531D01*
G75*
G02X759448Y146490I4696J887*
G01*
G75*
G02X764226Y151268I4778*
G01*
G75*
G02X769004Y146490J-4778*
G01*
G75*
G02X768922Y145604I-4778J-1*
G01*
X784350*
Y164986*
X683571*
Y150591*
X681368*
Y145604*
X681633*
G75*
G02X684487Y148108I2854J-374*
G01*
X692717*
Y149417*
X701878*
Y149230*
X737861*
G75*
G02X740959Y150581I3098J-2878*
G01*
X742022*
G75*
G02X745092I1535J-4169*
G01*
X746156*
G75*
G02X750384Y146352J-4228*
G01*
G75*
G02X750317Y145604I-4229J-1*
G01*
G37*
X86356Y183518D02*
G36*
X14280D01*
Y164986*
X86356*
Y183518*
G37*
X372217D02*
G36*
X371472D01*
Y178890*
X362217*
Y183518*
X91112*
Y164986*
X161614*
Y169791*
X163817*
Y174364*
G75*
G02X166195Y176742I2378*
G01*
X374467*
Y178890*
X372217*
Y183518*
G37*
X392217D02*
G36*
X391472D01*
Y178890*
X382217*
Y183518*
X381472*
Y178890*
X379222*
Y174364*
G75*
G02X376844Y171986I-2378*
G01*
X168573*
Y169791*
X170776*
Y164986*
X285728*
G75*
G02X285395Y166589I3696J1602*
G01*
G75*
G02X293451I4028*
G01*
Y166588*
G75*
G02X293119Y164986I-4028*
G01*
X395215*
Y178890*
X392217*
Y183518*
G37*
X543208Y164986D02*
G36*
G75*
G02X542876Y166589I3696J1603D01*
G01*
G75*
G02X544639Y169919I4028J0*
G01*
X416844*
G75*
G02X414467Y172297J2378*
G01*
Y178890*
X412217*
Y183518*
X411472*
Y178890*
X402217*
Y183518*
X401472*
Y178890*
X399970*
Y164986*
X543208*
G37*
X683571D02*
G36*
X784350D01*
Y183518*
X431472*
Y178890*
X422217*
Y183518*
X421472*
Y178890*
X419222*
Y174675*
X678990*
G75*
G02X681368Y172297J-2378*
G01*
Y166445*
X683571*
Y164986*
G37*
X674409D02*
G36*
Y166445D01*
X676612*
Y169919*
X549169*
G75*
G02X550931Y166589I-2265J-3331*
G01*
G75*
G02X550599Y164986I-4029J1*
G01*
X674409*
G37*
X86356Y193518D02*
G36*
X14280D01*
Y183518*
X86356*
Y193518*
G37*
X431472D02*
G36*
Y188890D01*
X422217*
Y193518*
X411472*
Y188890*
X402217*
Y193518*
X391472*
Y188890*
X382217*
Y193518*
X371472*
Y188890*
X362217*
Y191140*
X91112*
Y183518*
X362217*
Y188146*
X371472*
Y183518*
X372217*
Y188146*
X381472*
Y183518*
X382217*
Y188146*
X391472*
Y183518*
X392217*
Y188146*
X401472*
Y183518*
X402217*
Y188146*
X411472*
Y183518*
X412217*
Y188146*
X421472*
Y183518*
X422217*
Y188146*
X431472*
Y183518*
X784350*
Y193518*
X431472*
G37*
X371472D02*
G36*
X382217D01*
Y198146*
X391472*
Y193518*
X402217*
Y198146*
X411472*
Y193518*
X422217*
Y198146*
X431472*
Y193518*
X784350*
Y212008*
X14280*
Y193518*
X86356*
G75*
G02X88734Y195896I2378*
G01*
X362217*
Y198146*
X371472*
Y193518*
G37*
X36978Y143950D02*
Y143083D01*
X37416*
Y144344*
G75*
G02X37416Y144388I2882J-5*
G01*
X36978Y143950*
G36*
Y143083*
X37416*
Y144344*
G75*
G02X37416Y144388I2882J-5*
G01*
X36978Y143950*
G37*
X132238Y105368D02*
X121215Y116392D01*
X16490*
Y57679*
G75*
G02X30939Y50447I4232J-9594*
G01*
X31722*
Y108043*
X43171*
Y102463*
G75*
G02X43172Y102415I-2882J-48*
G01*
Y50447*
X132238*
Y105368*
X101963Y109695D02*
G75*
G02X106191Y105467J-4228D01*
G01*
G75*
G02X101963Y101238I-4228*
G01*
X96766*
G75*
G02X93668Y102589J4228*
G01*
X60638*
Y99594*
X95850*
G75*
G02X96766Y99695I916J-4127*
G01*
X101963*
G75*
G02X106191Y95467J-4228*
G01*
G75*
G02X101963Y91238I-4228*
G01*
X96766*
G75*
G02X95850Y91339J4228*
G01*
X60638*
Y87992*
X51476*
Y109161*
X53179*
Y110167*
X26232*
Y102415*
G75*
G02X26230Y102320I-2881*
G01*
Y96787*
X20474*
Y108043*
X20476*
Y113045*
G75*
G02X23354Y115923I2878*
G01*
X56057*
G75*
G02X58935Y113045J-2878*
G01*
Y109161*
X60638*
Y108344*
X93668*
G75*
G02X96766Y109695I3098J-2878*
G01*
X101963*
X122976Y82419D02*
X125746Y79649D01*
Y75733*
X122976Y72963*
X119060*
X116290Y75733*
Y79649*
X119060Y82419*
X122976*
X116290Y94266D02*
G75*
G02X125746I4728D01*
G01*
G75*
G02X116290I-4728*
G01*
X122976Y108994D02*
X125746Y106224D01*
Y102308*
X122976Y99538*
X119060*
X116290Y102308*
Y106224*
X119060Y108994*
X122976*
X31722Y77691D02*
G36*
X16740D01*
Y57785*
G75*
G02X30878Y50697I3982J-9700*
G01*
X31722*
Y77691*
G37*
X125746D02*
G36*
Y75733D01*
X122976Y72963*
X119060*
X116290Y75733*
Y77691*
X43172*
Y50697*
X131988*
Y77691*
X125746*
G37*
X31722Y94266D02*
G36*
X16740D01*
Y77691*
X31722*
Y94266*
G37*
X106017D02*
G36*
G75*
G02X101963Y91238I-4055J1201D01*
G01*
X96766*
G75*
G02X95850Y91339I0J4231*
G01*
X60638*
Y87992*
X51476*
Y94266*
X43172*
Y77691*
X116290*
Y79649*
X119060Y82419*
X122976*
X125746Y79649*
Y77691*
X131988*
Y94266*
X125746*
G75*
G02X116290I-4728*
G01*
X106017*
G37*
X31722Y101957D02*
G36*
X26230D01*
Y96787*
X20474*
Y101957*
X16740*
Y94266*
X31722*
Y101957*
G37*
X51476Y94266D02*
G36*
Y101957D01*
X43172*
Y94266*
X51476*
G37*
X125395Y101957D02*
G36*
X122976Y99538D01*
X119060*
X116640Y101957*
X104321*
G75*
G02X101963Y101238I-2359J3509*
G01*
X96766*
G75*
G02X94407Y101957J4228*
G01*
X60638*
Y99594*
X95850*
G75*
G02X96766Y99695I916J-4130*
G01*
X101963*
G75*
G02X106191Y95467J-4228*
G01*
G75*
G02X106017Y94266I-4229*
G01*
X116290*
G75*
G02X125746I4728*
G01*
X131988*
Y101957*
X125395*
G37*
X104321D02*
G36*
X116640D01*
X116290Y102308*
Y106224*
X119060Y108994*
X122976*
X125746Y106224*
Y102308*
X125395Y101957*
X131988*
Y105618*
X121465Y116142*
X16740*
Y101957*
X20474*
Y108043*
X20476*
Y113045*
G75*
G02X23354Y115923I2878*
G01*
X56057*
G75*
G02X58935Y113045J-2878*
G01*
Y109161*
X60638*
Y108344*
X93668*
G75*
G02X96766Y109695I3098J-2878*
G01*
X101963*
G75*
G02X106191Y105467J-4228*
G01*
G75*
G02X104321Y101957I-4229J0*
G01*
G37*
X51476D02*
G36*
Y109161D01*
X53179*
Y110167*
X26232*
Y102415*
G75*
G02X26230Y102320I-2884*
G01*
Y101957*
X31722*
Y108043*
X43171*
Y102463*
G75*
G02X43172Y102428I-1421J-33*
G01*
G75*
G02Y102415I-1454J-6*
G01*
Y101957*
X51476*
G37*
X94407D02*
G36*
G75*
G02X93668Y102589I2359J3509D01*
G01*
X60638*
Y101957*
X94407*
G37*
X266490Y116293D02*
X155270D01*
X155194Y116218*
G75*
G02X155244Y116219I48J-2877*
G01*
X187947*
G75*
G02X190825Y113341J-2878*
G01*
Y109161*
X192528*
Y107852*
X225165*
G75*
G02X228656Y109695I3491J-2386*
G01*
X233852*
G75*
G02X238081Y105467J-4228*
G01*
G75*
G02X233852Y101238I-4228*
G01*
X228656*
G75*
G02X226102Y102096J4228*
G01*
X192528*
Y99594*
X227740*
G75*
G02X228656Y99695I916J-4127*
G01*
X233852*
G75*
G02X238081Y95467J-4228*
G01*
G75*
G02X233852Y91238I-4228*
G01*
X228656*
G75*
G02X227740Y91339J4228*
G01*
X192528*
Y87992*
X183366*
Y109161*
X185069*
Y110463*
X158122*
Y102415*
G75*
G02X158120Y102320I-2881*
G01*
Y96787*
X152364*
Y108043*
X152366*
Y113341*
G75*
G02X152366Y113390I2877J2*
G01*
X148380Y109404*
Y50841*
X163612*
Y108043*
X175061*
Y102463*
G75*
G02X175061Y102415I-2882J-48*
G01*
Y50841*
X266490*
Y116293*
X254865Y82419D02*
X257635Y79649D01*
Y75733*
X254865Y72963*
X250950*
X248180Y75733*
Y79649*
X250950Y82419*
X254865*
X248180Y94266D02*
G75*
G02X257635I4728D01*
G01*
G75*
G02X248180I-4728*
G01*
X254865Y108994D02*
X257635Y106224D01*
Y102308*
X254865Y99538*
X250950*
X248180Y102308*
Y106224*
X250950Y108994*
X254865*
X163612Y77691D02*
G36*
X148630D01*
Y51091*
X163612*
Y77691*
G37*
X257635D02*
G36*
Y75733D01*
X254865Y72963*
X250950*
X248180Y75733*
Y77691*
X175061*
Y51091*
X266240*
Y77691*
X257635*
G37*
X163612Y94266D02*
G36*
X148630D01*
Y77691*
X163612*
Y94266*
G37*
X237907D02*
G36*
G75*
G02X233852Y91238I-4055J1201D01*
G01*
X228656*
G75*
G02X227740Y91339I0J4231*
G01*
X192528*
Y87992*
X183366*
Y94266*
X175061*
Y77691*
X248180*
Y79649*
X250950Y82419*
X254865*
X257635Y79649*
Y77691*
X266240*
Y94266*
X257635*
G75*
G02X248180I-4728*
G01*
X237907*
G37*
X163612D02*
G36*
Y104266D01*
X158122*
Y102415*
G75*
G02X158120Y102320I-2884*
G01*
Y96787*
X152364*
Y104266*
X148630*
Y94266*
X163612*
G37*
X183366Y104266D02*
G36*
X175061D01*
Y102463*
G75*
G02X175061Y102428I-1421J-33*
G01*
G75*
G02Y102415I-1454J-6*
G01*
Y94266*
X183366*
Y104266*
G37*
X257635D02*
G36*
Y102308D01*
X254865Y99538*
X250950*
X248180Y102308*
Y104266*
X237907*
G75*
G02X233852Y101238I-4055J1201*
G01*
X228656*
G75*
G02X226102Y102096I1J4231*
G01*
X192528*
Y99594*
X227740*
G75*
G02X228656Y99695I916J-4130*
G01*
X233852*
G75*
G02X238081Y95467J-4228*
G01*
G75*
G02X237907Y94266I-4229*
G01*
X248180*
G75*
G02X257635I4728*
G01*
X266240*
Y104266*
X257635*
G37*
X183366D02*
G36*
Y109161D01*
X185069*
Y110463*
X158122*
Y104266*
X163612*
Y108043*
X175061*
Y104266*
X183366*
G37*
X152364D02*
G36*
Y108043D01*
X152366*
Y113341*
G75*
G02Y113353I1552J6*
G01*
G75*
G02X152366Y113390I1518J2*
G01*
X148630Y109654*
Y104266*
X152364*
G37*
X237907D02*
G36*
X248180D01*
Y106224*
X250950Y108994*
X254865*
X257635Y106224*
Y104266*
X266240*
Y116043*
X188936*
G75*
G02X190825Y113341I-989J-2703*
G01*
Y109161*
X192528*
Y107852*
X225165*
G75*
G02X228656Y109695I3491J-2387*
G01*
X233852*
G75*
G02X238081Y105467J-4228*
G01*
G75*
G02X237907Y104266I-4229*
G01*
G37*
X291959Y146457D02*
Y143280D01*
X292239*
Y144541*
G75*
G02X292969Y146457I2878*
G01*
X291959*
G36*
Y143280*
X292239*
Y144541*
G75*
G02X292969Y146457I2878*
G01*
X291959*
G37*
X387061Y105270D02*
X376037Y116293D01*
X271313*
Y50644*
X286545*
Y108240*
X297994*
Y102660*
G75*
G02X297994Y102612I-2882J-48*
G01*
Y50644*
X384569*
G75*
G02X387061Y55228I10169J-2559*
G01*
Y105270*
X356785Y109892D02*
G75*
G02X361014Y105663J-4228D01*
G01*
G75*
G02X356785Y101435I-4228*
G01*
X351589*
G75*
G02X348491Y102785J4228*
G01*
X315461*
Y99791*
X350673*
G75*
G02X351589Y99892I916J-4127*
G01*
X356785*
G75*
G02X361014Y95663J-4228*
G01*
G75*
G02X356785Y91435I-4228*
G01*
X351589*
G75*
G02X350673Y91535J4228*
G01*
X315461*
Y88189*
X306299*
Y109358*
X308002*
Y110364*
X281055*
Y102612*
G75*
G02X281053Y102517I-2881*
G01*
Y96984*
X275297*
Y108240*
X275299*
Y113242*
G75*
G02X278177Y116120I2878*
G01*
X310880*
G75*
G02X313758Y113242J-2878*
G01*
Y109358*
X315461*
Y108541*
X348491*
G75*
G02X351589Y109892I3098J-2878*
G01*
X356785*
X377798Y82616D02*
X380569Y79846D01*
Y75930*
X377798Y73160*
X373883*
X371113Y75930*
Y79846*
X373883Y82616*
X377798*
X371113Y94463D02*
G75*
G02X380569I4728D01*
G01*
G75*
G02X371113I-4728*
G01*
X377798Y109191D02*
X380569Y106420D01*
Y102505*
X377798Y99735*
X373883*
X371113Y102505*
Y106420*
X373883Y109191*
X377798*
X386811Y54949D02*
G36*
Y77888D01*
X380569*
Y75930*
X377798Y73160*
X373883*
X371113Y75930*
Y77888*
X297994*
Y50894*
X384635*
G75*
G02X386811Y54949I10103J-2809*
G01*
G37*
X286545Y77888D02*
G36*
X271563D01*
Y50894*
X286545*
Y77888*
G37*
Y94463D02*
G36*
X271563D01*
Y77888*
X286545*
Y94463*
G37*
X360840D02*
G36*
G75*
G02X356785Y91435I-4055J1201D01*
G01*
X351589*
G75*
G02X350673Y91535I0J4231*
G01*
X315461*
Y88189*
X306299*
Y94463*
X297994*
Y77888*
X371113*
Y79846*
X373883Y82616*
X377798*
X380569Y79846*
Y77888*
X386811*
Y94463*
X380569*
G75*
G02X371113I-4728*
G01*
X360840*
G37*
X286545Y102154D02*
G36*
X281053D01*
Y96984*
X275297*
Y102154*
X271563*
Y94463*
X286545*
Y102154*
G37*
X306299Y94463D02*
G36*
Y102154D01*
X297994*
Y94463*
X306299*
G37*
X380218Y102154D02*
G36*
X377798Y99735D01*
X373883*
X371463Y102154*
X359144*
G75*
G02X356785Y101435I-2359J3509*
G01*
X351589*
G75*
G02X349230Y102154J4228*
G01*
X315461*
Y99791*
X350673*
G75*
G02X351589Y99892I916J-4130*
G01*
X356785*
G75*
G02X361014Y95663J-4228*
G01*
G75*
G02X360840Y94463I-4229*
G01*
X371113*
G75*
G02X380569I4728*
G01*
X386811*
Y102154*
X380218*
G37*
X359144D02*
G36*
X371463D01*
X371113Y102505*
Y106420*
X373883Y109191*
X377798*
X380569Y106420*
Y102505*
X380218Y102154*
X386811*
Y105520*
X376287Y116043*
X311540*
G75*
G02X313758Y113242I-660J-2801*
G01*
Y109358*
X315461*
Y108541*
X348491*
G75*
G02X351589Y109892I3098J-2878*
G01*
X356785*
G75*
G02X361014Y105663J-4228*
G01*
G75*
G02X359144Y102154I-4229J0*
G01*
G37*
X277517Y116043D02*
G36*
X271563D01*
Y102154*
X275297*
Y108240*
X275299*
Y113242*
G75*
G02X277517Y116043I2878*
G01*
G37*
X306299Y102154D02*
G36*
Y109358D01*
X308002*
Y110364*
X281055*
Y102612*
G75*
G02X281053Y102517I-2884*
G01*
Y102154*
X286545*
Y108240*
X297994*
Y102660*
G75*
G02X297994Y102624I-1421J-33*
G01*
G75*
G02Y102612I-1454J-6*
G01*
Y102154*
X306299*
G37*
X349230D02*
G36*
G75*
G02X348491Y102785I2359J3509D01*
G01*
X315461*
Y102154*
X349230*
G37*
X521313Y116785D02*
X443874D01*
G75*
G02X445648Y114128I-1105J-2657*
G01*
Y109358*
X447350*
Y108049*
X479987*
G75*
G02X483478Y109892I3491J-2386*
G01*
X488675*
G75*
G02X492904Y105663J-4228*
G01*
G75*
G02X488675Y101435I-4228*
G01*
X483478*
G75*
G02X480925Y102293J4228*
G01*
X447350*
Y99791*
X482563*
G75*
G02X483478Y99892I916J-4127*
G01*
X488675*
G75*
G02X492904Y95663J-4228*
G01*
G75*
G02X488675Y91435I-4228*
G01*
X483478*
G75*
G02X482563Y91535J4228*
G01*
X447350*
Y88189*
X438189*
Y109358*
X439892*
Y111250*
X412944*
Y102612*
G75*
G02X412943Y102517I-2881*
G01*
Y96984*
X407187*
Y108240*
X407189*
Y113881*
X403203Y109896*
Y54274*
G75*
G02X404800Y51037I-8465J-6189*
G01*
X418435*
Y108240*
X429884*
Y102660*
G75*
G02X429884Y102612I-2882J-48*
G01*
Y51037*
X521313*
Y116785*
X509688Y82616D02*
X512458Y79846D01*
Y75930*
X509688Y73160*
X505772*
X503002Y75930*
Y79846*
X505772Y82616*
X509688*
X503002Y94463D02*
G75*
G02X512458I4728D01*
G01*
G75*
G02X503002I-4728*
G01*
X509688Y109191D02*
X512458Y106420D01*
Y102505*
X509688Y99735*
X505772*
X503002Y102505*
Y106420*
X505772Y109191*
X509688*
X418435Y77888D02*
G36*
X403453D01*
Y53917*
G75*
G02X404723Y51287I-8713J-5831*
G01*
X418435*
Y77888*
G37*
X512458D02*
G36*
Y75930D01*
X509688Y73160*
X505772*
X503002Y75930*
Y77888*
X429884*
Y51287*
X521063*
Y77888*
X512458*
G37*
X418435Y94463D02*
G36*
X403453D01*
Y77888*
X418435*
Y94463*
G37*
X492730D02*
G36*
G75*
G02X488675Y91435I-4055J1201D01*
G01*
X483478*
G75*
G02X482563Y91535I0J4231*
G01*
X447350*
Y88189*
X438189*
Y94463*
X429884*
Y77888*
X503002*
Y79846*
X505772Y82616*
X509688*
X512458Y79846*
Y77888*
X521063*
Y94463*
X512458*
G75*
G02X503002I-4728*
G01*
X492730*
G37*
X418435D02*
G36*
Y104463D01*
X412944*
Y102612*
G75*
G02X412943Y102517I-2884*
G01*
Y96984*
X407187*
Y104463*
X403453*
Y94463*
X418435*
G37*
X438189Y104463D02*
G36*
X429884D01*
Y102660*
G75*
G02X429884Y102624I-1421J-33*
G01*
G75*
G02Y102612I-1454J-6*
G01*
Y94463*
X438189*
Y104463*
G37*
X512458D02*
G36*
Y102505D01*
X509688Y99735*
X505772*
X503002Y102505*
Y104463*
X492730*
G75*
G02X488675Y101435I-4055J1201*
G01*
X483478*
G75*
G02X480925Y102293I1J4231*
G01*
X447350*
Y99791*
X482563*
G75*
G02X483478Y99892I916J-4130*
G01*
X488675*
G75*
G02X492904Y95663J-4228*
G01*
G75*
G02X492730Y94463I-4229*
G01*
X503002*
G75*
G02X512458I4728*
G01*
X521063*
Y104463*
X512458*
G37*
X407187D02*
G36*
Y108240D01*
X407189*
Y113881*
X403453Y110146*
Y104463*
X407187*
G37*
X438189D02*
G36*
Y109358D01*
X439892*
Y111250*
X412944*
Y104463*
X418435*
Y108240*
X429884*
Y104463*
X438189*
G37*
X492730D02*
G36*
X503002D01*
Y106420*
X505772Y109191*
X509688*
X512458Y106420*
Y104463*
X521063*
Y116535*
X444346*
G75*
G02X445648Y114128I-1577J-2407*
G01*
Y109358*
X447350*
Y108049*
X479987*
G75*
G02X483478Y109892I3491J-2387*
G01*
X488675*
G75*
G02X492904Y105663J-4228*
G01*
G75*
G02X492730Y104463I-4229*
G01*
G37*
X644541Y105860D02*
X633518Y116884D01*
X528793*
Y51333*
X544026*
Y108929*
X555474*
Y103349*
G75*
G02X555475Y103301I-2882J-48*
G01*
Y51333*
X644541*
Y105860*
X614266Y110581D02*
G75*
G02X618494Y106352J-4228D01*
G01*
G75*
G02X614266Y102124I-4228*
G01*
X609069*
G75*
G02X605971Y103474J4228*
G01*
X572941*
Y100480*
X608153*
G75*
G02X609069Y100581I916J-4127*
G01*
X614266*
G75*
G02X618494Y96352J-4228*
G01*
G75*
G02X614266Y92124I-4228*
G01*
X609069*
G75*
G02X608153Y92224J4228*
G01*
X572941*
Y88878*
X563780*
Y110047*
X565482*
Y111053*
X538535*
Y103301*
G75*
G02X538533Y103206I-2881*
G01*
Y97673*
X532778*
Y108929*
X532779*
Y113931*
G75*
G02X535657Y116809I2878*
G01*
X568360*
G75*
G02X571238Y113931J-2878*
G01*
Y110047*
X572941*
Y109230*
X605971*
G75*
G02X609069Y110581I3098J-2878*
G01*
X614266*
X635279Y83305D02*
X638049Y80535D01*
Y76619*
X635279Y73849*
X631363*
X628593Y76619*
Y80535*
X631363Y83305*
X635279*
X628593Y95152D02*
G75*
G02X638049I4728D01*
G01*
G75*
G02X628593I-4728*
G01*
X635279Y109880D02*
X638049Y107109D01*
Y103194*
X635279Y100424*
X631363*
X628593Y103194*
Y107109*
X631363Y109880*
X635279*
X544026Y78577D02*
G36*
X529043D01*
Y51583*
X544026*
Y78577*
G37*
X638049D02*
G36*
Y76619D01*
X635279Y73849*
X631363*
X628593Y76619*
Y78577*
X555475*
Y51583*
X644291*
Y78577*
X638049*
G37*
X544026Y95152D02*
G36*
X529043D01*
Y78577*
X544026*
Y95152*
G37*
X618320D02*
G36*
G75*
G02X614266Y92124I-4055J1201D01*
G01*
X609069*
G75*
G02X608153Y92224I0J4231*
G01*
X572941*
Y88878*
X563780*
Y95152*
X555475*
Y78577*
X628593*
Y80535*
X631363Y83305*
X635279*
X638049Y80535*
Y78577*
X644291*
Y95152*
X638049*
G75*
G02X628593I-4728*
G01*
X618320*
G37*
X544026Y102843D02*
G36*
X538533D01*
Y97673*
X532778*
Y102843*
X529043*
Y95152*
X544026*
Y102843*
G37*
X563780Y95152D02*
G36*
Y102843D01*
X555475*
Y95152*
X563780*
G37*
X637698Y102843D02*
G36*
X635279Y100424D01*
X631363*
X628943Y102843*
X616624*
G75*
G02X614266Y102124I-2359J3509*
G01*
X609069*
G75*
G02X606710Y102843J4228*
G01*
X572941*
Y100480*
X608153*
G75*
G02X609069Y100581I916J-4130*
G01*
X614266*
G75*
G02X618494Y96352J-4228*
G01*
G75*
G02X618320Y95152I-4229*
G01*
X628593*
G75*
G02X638049I4728*
G01*
X644291*
Y102843*
X637698*
G37*
X616624D02*
G36*
X628943D01*
X628593Y103194*
Y107109*
X631363Y109880*
X635279*
X638049Y107109*
Y103194*
X637698Y102843*
X644291*
Y106110*
X633768Y116634*
X569349*
G75*
G02X571238Y113931I-989J-2703*
G01*
Y110047*
X572941*
Y109230*
X605971*
G75*
G02X609069Y110581I3098J-2878*
G01*
X614266*
G75*
G02X618494Y106352J-4228*
G01*
G75*
G02X616624Y102843I-4229J0*
G01*
G37*
X534668Y116634D02*
G36*
X529043D01*
Y102843*
X532778*
Y108929*
X532779*
Y113931*
G75*
G02X534668Y116634I2878*
G01*
G37*
X563780Y102843D02*
G36*
Y110047D01*
X565482*
Y111053*
X538535*
Y103301*
G75*
G02X538533Y103206I-2884*
G01*
Y102843*
X544026*
Y108929*
X555474*
Y103349*
G75*
G02X555475Y103313I-1421J-33*
G01*
G75*
G02Y103301I-1454J-6*
G01*
Y102843*
X563780*
G37*
X606710D02*
G36*
G75*
G02X605971Y103474I2359J3509D01*
G01*
X572941*
Y102843*
X606710*
G37*
X778793Y116884D02*
X667573D01*
X667063Y116374*
G75*
G02X667547Y116415I484J-2838*
G01*
X700250*
G75*
G02X703128Y113537J-2878*
G01*
Y110047*
X704831*
Y108738*
X737468*
G75*
G02X740959Y110581I3491J-2386*
G01*
X746156*
G75*
G02X750384Y106352J-4228*
G01*
G75*
G02X746156Y102124I-4228*
G01*
X740959*
G75*
G02X738405Y102982J4228*
G01*
X704831*
Y100480*
X740043*
G75*
G02X740959Y100581I916J-4127*
G01*
X746156*
G75*
G02X750384Y96352J-4228*
G01*
G75*
G02X746156Y92124I-4228*
G01*
X740959*
G75*
G02X740043Y92224J4228*
G01*
X704831*
Y88878*
X695669*
Y110047*
X697372*
Y110659*
X670425*
Y103301*
G75*
G02X670423Y103206I-2881*
G01*
Y97673*
X664667*
Y108929*
X664669*
Y113537*
G75*
G02X664710Y114021I2879J0*
G01*
X660683Y109994*
Y51726*
X675915*
Y108929*
X687364*
Y51726*
X758920*
G75*
G02X778587I9833J-3642*
G01*
X778793*
Y116884*
X767169Y83305D02*
X769939Y80535D01*
Y76619*
X767169Y73849*
X763253*
X760483Y76619*
Y80535*
X763253Y83305*
X767169*
X765211Y99880D02*
G75*
G02Y90424J-4728D01*
G01*
G75*
G02Y99880J4728*
G01*
X767169Y109880D02*
X769939Y107109D01*
Y103194*
X767169Y100424*
X763253*
X760483Y103194*
Y107109*
X763253Y109880*
X767169*
X675915Y78577D02*
G36*
X660933D01*
Y51976*
X675915*
Y78577*
G37*
X778491Y51976D02*
G36*
X778543D01*
Y78577*
X769939*
Y76619*
X767169Y73849*
X763253*
X760483Y76619*
Y78577*
X687364*
Y51976*
X759017*
G75*
G02X778491I9737J-3892*
G01*
G37*
X675915Y95152D02*
G36*
X660933D01*
Y78577*
X675915*
Y95152*
G37*
X750210D02*
G36*
G75*
G02X746156Y92124I-4055J1201D01*
G01*
X740959*
G75*
G02X740043Y92224I0J4231*
G01*
X704831*
Y88878*
X695669*
Y95152*
X687364*
Y78577*
X760483*
Y80535*
X763253Y83305*
X767169*
X769939Y80535*
Y78577*
X778543*
Y95152*
X769939*
G75*
G02X765211Y90424I-4728*
G01*
G75*
G02X760483Y95152J4728*
G01*
X750210*
G37*
X675915Y105152D02*
G36*
X670425D01*
Y103301*
G75*
G02X670423Y103206I-2884*
G01*
Y97673*
X664667*
Y105152*
X660933*
Y95152*
X675915*
Y105152*
G37*
X695669D02*
G36*
X687364D01*
Y95152*
X695669*
Y105152*
G37*
X769939D02*
G36*
Y103194D01*
X767169Y100424*
X763253*
X760483Y103194*
Y105152*
X750210*
G75*
G02X746156Y102124I-4055J1201*
G01*
X740959*
G75*
G02X738405Y102982I1J4231*
G01*
X704831*
Y100480*
X740043*
G75*
G02X740959Y100581I916J-4130*
G01*
X746156*
G75*
G02X750384Y96352J-4228*
G01*
G75*
G02X750210Y95152I-4229*
G01*
X760483*
G75*
G02X765211Y99880I4728*
G01*
G75*
G02X769939Y95152J-4728*
G01*
X778543*
Y105152*
X769939*
G37*
X750210D02*
G36*
X760483D01*
Y107109*
X763253Y109880*
X767169*
X769939Y107109*
Y105152*
X778543*
Y116634*
X667323*
X667063Y116374*
G75*
G02X667547Y116415I483J-2831*
G01*
X700250*
G75*
G02X703128Y113537J-2878*
G01*
Y110047*
X704831*
Y108738*
X737468*
G75*
G02X740959Y110581I3491J-2387*
G01*
X746156*
G75*
G02X750384Y106352J-4228*
G01*
G75*
G02X750210Y105152I-4229*
G01*
G37*
X664667D02*
G36*
Y108929D01*
X664669*
Y113537*
Y113538*
G75*
G02X664710Y114021I2871*
G01*
X660933Y110244*
Y105152*
X664667*
G37*
X695669D02*
G36*
Y110047D01*
X697372*
Y110659*
X670425*
Y105152*
X675915*
Y108929*
X687364*
Y105152*
X695669*
G37*
D02*
D82*
X20722Y48085D03*
Y225250D03*
X137750Y121313D03*
X392573Y121510D03*
X394738Y48085D03*
Y225250D03*
X768754Y48085D03*
Y225250D03*
D02*
D84*
X23354Y102415D03*
Y137455D03*
X28977Y102415D03*
Y137455D03*
X34600Y102415D03*
Y137455D03*
X40294Y102415D03*
Y137455D03*
X155244Y102415D03*
Y137455D03*
X160867Y102415D03*
Y137455D03*
X166490Y102415D03*
Y137455D03*
X172183Y102415D03*
Y137455D03*
X278177Y102612D03*
Y137652D03*
X283800Y102612D03*
Y137652D03*
X289423Y102612D03*
Y137652D03*
X295117Y102612D03*
Y137652D03*
X410067Y102612D03*
Y137652D03*
X415690Y102612D03*
Y137652D03*
X421313Y102612D03*
Y137652D03*
X427006Y102612D03*
Y137652D03*
X535657Y103301D03*
Y138341D03*
X541280Y103301D03*
Y138341D03*
X546904Y103301D03*
Y138341D03*
X552597Y103301D03*
Y138341D03*
X667547Y103301D03*
Y138341D03*
X673170Y103301D03*
Y138341D03*
X678793Y103301D03*
Y138341D03*
X684487Y103301D03*
Y138341D03*
D02*
D85*
X366844Y183518D03*
Y193518D03*
X376844Y183518D03*
Y193518D03*
X386844Y183518D03*
Y193518D03*
X396844Y183518D03*
Y193518D03*
X406844Y183518D03*
Y193518D03*
X416844Y183518D03*
Y193518D03*
X426844Y183518D03*
Y193518D03*
D02*
D88*
X99364Y85467D03*
Y95467D03*
Y105467D03*
Y135467D03*
Y145467D03*
X231254Y85467D03*
Y95467D03*
Y105467D03*
Y135467D03*
Y145467D03*
X354187Y85663D03*
Y95663D03*
Y105663D03*
Y135663D03*
Y145663D03*
X486077Y85663D03*
Y95663D03*
Y105663D03*
Y135663D03*
Y145663D03*
X611667Y86352D03*
Y96352D03*
Y106352D03*
Y136352D03*
Y146352D03*
X743557Y86352D03*
Y96352D03*
Y106352D03*
Y136352D03*
Y146352D03*
D02*
D89*
X120033Y145604D03*
X251923D03*
X374856Y145801D03*
X506746D03*
X632337Y146490D03*
X764226D03*
D02*
D90*
X120033Y135604D03*
X251923D03*
X374856Y135801D03*
X506746D03*
X632337Y136490D03*
X764226D03*
D02*
D91*
X121018Y67691D03*
Y94266D03*
X252907Y67691D03*
Y94266D03*
X375841Y67888D03*
Y94463D03*
X507730Y67888D03*
Y94463D03*
X633321Y68577D03*
Y95152D03*
X765211Y68577D03*
Y95152D03*
D02*
D92*
X121018Y77691D03*
Y104266D03*
X252907Y77691D03*
Y104266D03*
X375841Y77888D03*
Y104463D03*
X507730Y77888D03*
Y104463D03*
X633321Y78577D03*
Y105152D03*
X765211Y78577D03*
Y105152D03*
D02*
D93*
X53104Y136864D03*
Y144344D03*
X56057Y84699D03*
Y92179D03*
Y97494D03*
Y104974D03*
X166195Y158124D03*
Y165604D03*
X184994Y136864D03*
Y144344D03*
X187947Y84699D03*
Y92179D03*
Y97494D03*
Y104974D03*
X289325Y150644D03*
Y158124D03*
X307927Y137061D03*
Y144541D03*
X310880Y84896D03*
Y92376D03*
Y97691D03*
Y105171D03*
X439817Y137061D03*
Y144541D03*
X442770Y84896D03*
Y92376D03*
Y97691D03*
Y105171D03*
X546904Y152415D03*
Y159896D03*
X565407Y137750D03*
Y145230D03*
X568360Y85585D03*
Y93065D03*
Y98380D03*
Y105860D03*
X678990Y154778D03*
Y162258D03*
X697297Y137750D03*
Y145230D03*
X700250Y85585D03*
Y93065D03*
Y98380D03*
Y105860D03*
D02*
D94*
X81254Y158321D03*
X88734D03*
X397593Y154187D03*
X405073D03*
D02*
D95*
X37258Y7920D02*
X53498D01*
X69935*
Y22986*
X99364Y95467D02*
X56057D01*
Y97494*
X99364Y145526D02*
Y145467D01*
X190880Y21320D02*
X194148D01*
Y7920D02*
X176234D01*
Y22986*
X216490Y7920D02*
X194148D01*
X231254Y95467D02*
X187947D01*
Y97494*
X231254Y145526D02*
Y145467D01*
X301333Y7920D02*
X341589D01*
Y22986*
X325749Y21320D02*
X323675D01*
X354187Y95663D02*
X310880D01*
Y97691*
X354187Y145722D02*
Y145663D01*
X365211Y22986D02*
Y22593D01*
X465900Y8904D02*
X447888D01*
Y22986*
X465900Y8904D02*
Y9101D01*
X488537*
X486077Y95663D02*
X442770D01*
Y97691*
X486077Y145722D02*
Y145663D01*
X572888Y8904D02*
X595526D01*
Y9101*
Y8904D02*
Y9101D01*
X613242*
Y22986*
X595526Y22501D02*
X597396D01*
Y22593*
X611667Y96352D02*
X568360D01*
Y98380*
X611667Y146411D02*
Y146352D01*
X737455Y8904D02*
X719541D01*
Y22986*
X737455Y8904D02*
Y9101D01*
X743557Y96352D02*
X700250D01*
Y98380*
X743557Y146411D02*
Y146352D01*
X760093Y9101D02*
X737455D01*
Y8904*
D02*
D96*
X23354Y102415D02*
Y113045D01*
X56057*
Y104974*
X34600Y102415D02*
Y21320D01*
X37258*
X40294Y102415D02*
Y42967D01*
X53498*
Y21320*
X40294Y137455D02*
Y144344D01*
X53104*
X99364Y85467D02*
Y84699D01*
Y105467D02*
X56057D01*
Y104974*
X99364Y145467D02*
X53104D01*
Y144344*
X155244Y102415D02*
Y113341D01*
X187947*
Y104974*
X166490Y102415D02*
Y38931D01*
X194148*
Y21320*
X172183Y102415D02*
Y45230D01*
X216490*
Y21320*
X172183Y137455D02*
Y144344D01*
X184994*
X231254Y85467D02*
Y84699D01*
Y105467D02*
Y104974D01*
X187947*
X231254Y145467D02*
X184994D01*
Y144344*
X278177Y102612D02*
Y113242D01*
X310880*
Y105171*
X289423Y102612D02*
Y37848D01*
X301333*
Y21320*
X295117Y102612D02*
Y43951D01*
X323675*
Y21320*
X295117Y137652D02*
Y144541D01*
X307927*
X354187Y85663D02*
Y84896D01*
Y105663D02*
X310880D01*
Y105171*
X354187Y145663D02*
X307927D01*
Y144541*
X410067Y102612D02*
Y114128D01*
X442770*
Y105171*
X421313Y102612D02*
Y36963D01*
X465900*
Y22304*
X427006Y102612D02*
Y42967D01*
X488537*
Y22501*
X427006Y137652D02*
Y144541D01*
X439817*
X486077Y85663D02*
Y84896D01*
Y105663D02*
Y105171D01*
X442770*
X486077Y145663D02*
X439817D01*
Y144541*
X535657Y103301D02*
Y113931D01*
X568360*
Y105860*
X546904Y103301D02*
Y36864D01*
X572888*
Y22304*
X552597Y103301D02*
Y43262D01*
X595526*
Y22501*
X552597Y138341D02*
Y145230D01*
X565407*
X611667Y86352D02*
Y85585D01*
Y106352D02*
X568360D01*
Y105860*
X611667Y146352D02*
X565407D01*
Y145230*
X667547Y103301D02*
Y113537D01*
X700250*
Y105860*
X678793Y103301D02*
Y37553D01*
X737455*
Y22304*
X684487Y103301D02*
Y43852D01*
X748675*
X760093Y32435*
Y22501*
X684487Y138341D02*
Y145230D01*
X697297*
X743557Y86352D02*
Y85585D01*
Y106352D02*
Y105860D01*
X700250*
X743557Y146352D02*
X697297D01*
Y145230*
D02*
D98*
X34600Y137455D02*
Y144935D01*
X47986Y158321*
X81254*
X166490Y137455D02*
Y158124D01*
X166195*
X289325D02*
X289522D01*
Y166589*
X289423*
Y137652D02*
Y144837D01*
X289325*
Y150644*
X366844Y193518D02*
X88734D01*
Y158321*
X366844Y193518D02*
Y195388D01*
X376844Y183518D02*
Y174364D01*
X166195*
Y165604*
X396844Y183518D02*
X397593D01*
Y154187*
X405073D02*
X421313D01*
Y137652*
X546904Y138341D02*
Y152415D01*
Y159896D02*
Y166589D01*
X678793Y138341D02*
X678990D01*
Y154778*
Y162258D02*
Y172297D01*
X416844*
Y183518*
D02*
D106*
X69935Y22986D03*
X93557D03*
X152612D03*
X176234D03*
X341589D03*
X365211D03*
X424266D03*
X447888D03*
X613242D03*
X636864D03*
X695919D03*
D03*
X719541D03*
D03*
D02*
D107*
X289423Y166589D03*
X546904D03*
D02*
D150*
X37258Y7920D03*
Y21320D03*
X53498Y7920D03*
Y21320D03*
X194148Y7920D03*
Y21320D03*
X216490Y7920D03*
Y21320D03*
X301333Y7920D03*
Y21320D03*
X323675Y7920D03*
Y21320D03*
X465900Y8904D03*
Y22304D03*
X488537Y9101D03*
Y22501D03*
X572888Y8904D03*
Y22304D03*
X595526Y9101D03*
Y22501D03*
X737455Y8904D03*
Y22304D03*
X760093Y9101D03*
Y22501D03*
X0Y0D02*
M02*
