G04 EasyPC Gerber Version 20.0.2 Build 4112 *
G04 #@! TF.Part,Single*
G04 #@! TF.FileFunction,Paste,Top *
%FSLAX35Y35*%
%MOIN*%
G04 #@! TA.AperFunction,WasherPad*
%ADD103R,0.01900X0.07400*%
G04 #@! TA.AperFunction,SMDPad*
%ADD29R,0.04518X0.05306*%
%ADD28R,0.05306X0.04518*%
%ADD74R,0.09600X0.05700*%
X0Y0D02*
D02*
D28*
X53104Y136864D03*
Y144344D03*
X56057Y84699D03*
Y92179D03*
Y97494D03*
Y104974D03*
X166195Y158124D03*
Y165604D03*
X184994Y136864D03*
Y144344D03*
X187947Y84699D03*
Y92179D03*
Y97494D03*
Y104974D03*
X289325Y150644D03*
Y158124D03*
X307927Y137061D03*
Y144541D03*
X310880Y84896D03*
Y92376D03*
Y97691D03*
Y105171D03*
X439817Y137061D03*
Y144541D03*
X442770Y84896D03*
Y92376D03*
Y97691D03*
Y105171D03*
X546904Y152415D03*
Y159896D03*
X565407Y137750D03*
Y145230D03*
X568360Y85585D03*
Y93065D03*
Y98380D03*
Y105860D03*
X678990Y154778D03*
Y162258D03*
X697297Y137750D03*
Y145230D03*
X700250Y85585D03*
Y93065D03*
Y98380D03*
Y105860D03*
D02*
D29*
X81254Y158321D03*
X88734D03*
X397593Y154187D03*
X405073D03*
D02*
D74*
X37258Y7920D03*
Y21320D03*
X53498Y7920D03*
Y21320D03*
X194148Y7920D03*
Y21320D03*
X216490Y7920D03*
Y21320D03*
X301333Y7920D03*
Y21320D03*
X323675Y7920D03*
Y21320D03*
X465900Y8904D03*
Y22304D03*
X488537Y9101D03*
Y22501D03*
X572888Y8904D03*
Y22304D03*
X595526Y9101D03*
Y22501D03*
X737455Y8904D03*
Y22304D03*
X760093Y9101D03*
Y22501D03*
D02*
D103*
X23354Y102415D03*
Y137455D03*
X28977Y102415D03*
Y137455D03*
X34600Y102415D03*
Y137455D03*
X40294Y102415D03*
Y137455D03*
X155244Y102415D03*
Y137455D03*
X160867Y102415D03*
Y137455D03*
X166490Y102415D03*
Y137455D03*
X172183Y102415D03*
Y137455D03*
X278177Y102612D03*
Y137652D03*
X283800Y102612D03*
Y137652D03*
X289423Y102612D03*
Y137652D03*
X295117Y102612D03*
Y137652D03*
X410067Y102612D03*
Y137652D03*
X415690Y102612D03*
Y137652D03*
X421313Y102612D03*
Y137652D03*
X427006Y102612D03*
Y137652D03*
X535657Y103301D03*
Y138341D03*
X541280Y103301D03*
Y138341D03*
X546904Y103301D03*
Y138341D03*
X552597Y103301D03*
Y138341D03*
X667547Y103301D03*
Y138341D03*
X673170Y103301D03*
Y138341D03*
X678793Y103301D03*
Y138341D03*
X684487Y103301D03*
Y138341D03*
X0Y0D02*
M02*
